<?xml version="1.0" standalone="no"?><!DOCTYPE svg PUBLIC "-//W3C//DTD SVG 1.1//EN" "http://www.w3.org/Graphics/SVG/1.1/DTD/svg11.dtd"><svg t="1732526885140" class="icon" viewBox="0 0 1024 1024" version="1.1" xmlns="http://www.w3.org/2000/svg" p-id="5198" xmlns:xlink="http://www.w3.org/1999/xlink" width="20" height="20"><path d="M923.963077 0H100.036923C44.898462 0 0 44.977231 0 100.036923v823.926154C0 979.101538 44.977231 1024 100.036923 1024h823.926154c55.059692 0 100.036923-44.977231 100.036923-100.036923V100.036923C1024 44.898462 979.022769 0 923.963077 0z m44.977231 901.671385c0 14.572308-5.750154 28.356923-16.147693 38.83323-10.476308 10.476308-14.178462 16.226462-28.829538 16.226462H108.701538a54.587077 54.587077 0 0 1-38.83323-16.226462 54.587077 54.587077 0 0 1-16.226462-38.83323V337.998769h915.298462v563.672616zM53.641846 269.942154V107.677538c0-14.572308 5.750154-28.356923 16.226462-38.83323a54.587077 54.587077 0 0 1 38.754461-16.226462h805.336616c14.572308 0 28.356923 5.750154 38.83323 16.226462a54.587077 54.587077 0 0 1 16.147693 38.83323v162.422154H53.641846z" fill="#1296db" p-id="5199"></path><path d="M157.538462 157.538462a39.384615 39.384615 0 1 0 78.76923 0 39.384615 39.384615 0 0 0-78.76923 0zM393.846154 157.538462a39.384615 39.384615 0 1 0 78.769231 0 39.384615 39.384615 0 0 0-78.769231 0zM630.153846 157.538462a39.384615 39.384615 0 1 0 78.769231 0 39.384615 39.384615 0 0 0-78.769231 0zM236.307692 631.414154C236.307692 531.298462 311.138462 472.615385 400.147692 472.615385c44.740923 0 80.423385 18.432 103.266462 38.990769l-37.100308 38.596923c-17.644308-14.808615-38.124308-25.521231-64.827077-25.521231-53.326769 0-93.262769 39.384615-93.262769 104.605539 0 66.087385 36.233846 105.865846 91.844923 105.865846 30.011077 0 53.799385-12.288 72.861539-29.932308l37.179076 37.809231c-29.065846 29.065846-66.717538 44.662154-112.403692 44.662154C308.775385 787.692308 236.307692 732.711385 236.307692 631.414154z m346.584616 61.44h-40.96v-38.912h46.237538l8.113231-56.162462h-43.323077v-39.384615h49.073231l11.815384-78.769231h40.487385l-10.948923 78.769231h60.022154l11.894154-78.769231h40.487384l-10.476307 78.769231H787.692308v39.384615h-48.049231l-8.113231 56.162462h45.213539v38.990769h-50.412308l-12.445539 89.009231h-41.90523l12.366769-89.009231h-59.470769l-12.839385 89.009231h-41.432615l12.366769-89.009231z m106.732307-38.912l8.113231-56.241231h-60.022154l-8.11323 56.241231h60.022153z" fill="#1296db" p-id="5200"></path></svg>