<?xml version="1.0" standalone="no"?><!DOCTYPE svg PUBLIC "-//W3C//DTD SVG 1.1//EN" "http://www.w3.org/Graphics/SVG/1.1/DTD/svg11.dtd"><svg t="1732527041939" class="icon" viewBox="0 0 1024 1024" version="1.1" xmlns="http://www.w3.org/2000/svg" p-id="6329" xmlns:xlink="http://www.w3.org/1999/xlink" width="20" height="20"><path d="M512.512 981.9136a471.04 471.04 0 1 1 261.0176-862.208l-45.4656 68.096A389.12 389.12 0 1 0 901.12 511.2832h81.92a471.04 471.04 0 0 1-470.528 470.6304z" fill="#d29618" p-id="6330"></path><path d="M714.8544 574.6688H461.312V282.4192h81.92v210.3296h171.6224v81.92z" fill="#d29618" p-id="6331"></path><path d="M809.8816 203.1616m-42.2912 0a42.2912 42.2912 0 1 0 84.5824 0 42.2912 42.2912 0 1 0-84.5824 0Z" fill="#d29618" p-id="6332"></path><path d="M885.9648 303.0016m-42.2912 0a42.2912 42.2912 0 1 0 84.5824 0 42.2912 42.2912 0 1 0-84.5824 0Z" fill="#d29618" p-id="6333"></path><path d="M932.864 426.9056m-42.2912 0a42.2912 42.2912 0 1 0 84.5824 0 42.2912 42.2912 0 1 0-84.5824 0Z" fill="#d29618" p-id="6334"></path></svg>