<?xml version="1.0" standalone="no"?><!DOCTYPE svg PUBLIC "-//W3C//DTD SVG 1.1//EN" "http://www.w3.org/Graphics/SVG/1.1/DTD/svg11.dtd"><svg t="1732590814136" class="icon" viewBox="0 0 1024 1024" version="1.1" xmlns="http://www.w3.org/2000/svg" p-id="18164" xmlns:xlink="http://www.w3.org/1999/xlink" width="20" height="20"><path d="M432.735368 396.838584v108.933214h77.496112c23.541272 0 40.502685-4.386572 51.396007-13.159717 10.454664-8.700035 16.084099-22.663957 16.084099-41.745547 0-19.1547-5.629435-33.118622-16.522756-40.941343-10.893321-8.773145-27.854735-13.086608-50.95735-13.086607H432.808477zM131.158515 498.314625V396.838584h83.637314c21.786643 0 37.432085 3.947915 47.886749 12.209293 9.57735 7.822721 14.841237 20.470671 14.841236 37.870742 0 16.522756-5.263887 29.243816-15.279894 37.870741-10.454664 8.773145-26.100106 13.525265-47.009434 13.525265h-84.075971z" fill="#d3217b" p-id="18165"></path><path d="M1023.533561 251.496818H0.146219v527.412222H1023.533561V251.423708z m-129.403886 127.064381c22.663957 18.277385 36.55477 43.500176 41.38 74.864169h-46.205229c-5.190777-20.909328-15.206784-36.55477-30.048021-46.570777-14.841237-10.016007-33.118622-14.841237-55.70947-14.841237-33.630388 0-58.85318 11.331979-75.814593 34.361484-16.084099 20.982438-23.979929 49.714487-23.979929 85.8306 0 37.505194 7.89583 66.237243 23.541272 86.707914 16.522756 21.786643 42.257314 32.679964 77.057455 32.679965 22.663957 0 41.818657-5.702544 56.659894-17.034523 15.645442-12.136184 26.538763-30.486678 32.679964-54.832155h46.13212c-6.945406 36.116113-23.102615 64.409505-48.764063 84.880176-23.979929 19.227809-52.638869 28.805159-86.269258 28.805159-50.957349 0-89.193639-16.595866-114.928197-48.837173-22.663957-27.781625-33.557279-65.286819-33.557279-112.369363 0-46.13212 11.331979-83.564204 34.873251-112.734911 26.100106-33.118622 63.6053-49.27583 113.173568-49.27583 36.189222 0 66.237243 9.211802 89.778515 28.366502z m-508.842399-22.225301h128.892119c74.059964 0 111.053391 31.363993 111.053392 94.530636 0 63.6053-37.432085 95.33484-111.930706 95.33484H432.735368v121.069398h-47.521201V356.335898z m-163.984698 0c31.437102 0 56.659894 6.945406 74.937278 21.347986 19.1547 15.645442 28.732049 37.870742 28.73205 67.480106 0 16.595866-4.386572 30.925335-13.086608 43.573285a69.600282 69.600282 0 0 1-40.502685 27.416078v0.877314c27.927844 6.141201 43.134629 24.418586 46.643886 54.832156l5.190778 49.714487c1.754629 19.1547 7.89583 34.361484 18.277385 45.693462H290.244874c-7.457173-9.50424-11.770636-23.468162-13.525265-40.941342l-3.947915-38.748056c-1.681519-17.400071-7.384064-29.609364-16.522756-37.432085-9.57735-7.822721-23.102615-11.331979-40.941342-11.331979h-84.075972v128.453462h-47.521201V356.335898h137.665264zM16.742085 166.104875c1.023534 0.511767 1.900848 1.096643 2.924381 1.462191 1.096643 0.438657 2.193286 0.731095 3.21682 0.950424 0.877314 0.219329 1.754629 0.584876 2.558834 0.731095a36.043003 36.043003 0 0 0 6.28742 0.511767h959.928262a30.706007 30.706007 0 0 0 31.656431-29.828692 30.706007 30.706007 0 0 0-31.656431-29.974912H108.0559L173.927596 51.176678a28.732049 28.732049 0 0 0 0-42.330424 32.899293 32.899293 0 0 0-44.669929 0L9.358021 118.729893l-0.219328 0.219329a26.319434 26.319434 0 0 0-3.801697 4.386572l-1.315971 2.412615c-0.511767 0.877314-1.169753 1.754629-1.68152 2.778162L1.462191 131.597172c-0.292438 0.877314-0.657986 1.681519-0.731096 2.631944a30.632897 30.632897 0 0 0 0 11.843745c0.07311 0.731095 0.438657 1.60841 0.731096 2.558834l0.950424 3.070601a16.449647 16.449647 0 0 0 1.681519 2.851272l1.315972 2.339505c1.169753 1.5353 2.412615 2.924382 3.801696 4.386572l0.219329 0.219329 0.292438 0.292438c1.315972 1.242862 2.851272 2.412615 4.605901 3.509258 0.731095 0 1.60841 0.365548 2.485724 0.804205zM894.129675 1014.760416l119.899646-109.883638 0.292438-0.219329a26.173215 26.173215 0 0 0 3.655477-4.386572c0.584876-0.731095 0.950424-1.462191 1.462191-2.339506 0.438657-0.950424 1.096643-1.900848 1.60841-2.851272 0.365548-0.950424 0.584876-1.973958 1.023533-2.924381l0.804205-2.631944a28.147173 28.147173 0 0 0 0.657986-5.556325v-0.438657a28.220282 28.220282 0 0 0-0.584876-5.556325 16.888304 16.888304 0 0 0-0.950424-2.631944c-0.219329-0.950424-0.438657-1.973958-0.950424-2.924381a30.19424 30.19424 0 0 0-1.60841-2.851272c-0.511767-0.804205-0.731095-1.462191-1.462191-2.339506a40.941342 40.941342 0 0 0-3.655477-4.386572l-0.292438-0.219329-0.219329-0.219328a26.904311 26.904311 0 0 0-4.67901-3.582368c-0.804205-0.438657-1.681519-0.804205-2.485725-1.315971-0.950424-0.438657-1.827739-1.023534-2.851272-1.462191a16.595866 16.595866 0 0 0-3.216819-0.877315c-0.877314-0.219329-1.754629-0.584876-2.631944-0.731095a35.677456 35.677456 0 0 0-6.28742-0.584876H31.72954a30.706007 30.706007 0 0 0-31.583321 29.974911 30.706007 30.706007 0 0 0 31.583321 29.828692H915.331442l-65.944805 58.92629a29.097597 29.097597 0 0 0-9.284912 21.201766c0 7.603392 3.14371 15.353003 9.284912 21.128657 12.428622 11.551307 32.314417 11.551307 44.669929-0.146219z" fill="#d3217b" p-id="18166"></path></svg>