<?xml version="1.0" standalone="no"?><!DOCTYPE svg PUBLIC "-//W3C//DTD SVG 1.1//EN" "http://www.w3.org/Graphics/SVG/1.1/DTD/svg11.dtd"><svg t="1732530711307" class="icon" viewBox="0 0 1024 1024" version="1.1" xmlns="http://www.w3.org/2000/svg" p-id="11042" xmlns:xlink="http://www.w3.org/1999/xlink" width="20" height="20"><path d="M407.654275 1019.076912c13.802247 0 28.966504-15.148908 28.966504-28.966504L436.620779 37.880196c0-9.761242-4.484093-21.582384-10.426386-27.509328-6.227793-6.243143-13.389858-9.792965-20.837423-10.362942 0 0-8.408442-0.30392-12.708341 2.851932-4.183243 3.644988-8.097359 7.542732-12.534381 11.979753L14.557312 380.411898c-6.988104 7.004477-10.680164 15.244074-10.426386 23.230917 0.205683 6.179698 2.788488 11.472197 7.68497 15.75163l2.709694 2.535733c13.72243 13.690708 32.421159 13.658985 46.11289 0L378.70312 103.863492l0 886.246915C378.70312 1008.016081 393.725139 1019.076912 407.654275 1019.076912z" fill="#d3217b" p-id="11043"></path><path d="M580.267298 33.37973l0 961.262865c0 17.874974 15.022019 28.934782 28.951155 28.934782 8.239598 0 16.194719-3.613266 23.008862-10.426386l372.512295-372.353684c5.308871-4.722522 11.694253-12.392142 11.979753-22.058218 0.222056-7.511009-3.200877-15.022019-9.888131-21.709273-13.690708-13.690708-32.374088-13.690708-46.064795 0L638.184957 919.626646 638.184957 33.37973c0-17.906697-15.038391-28.966504-28.966504-28.966504C595.416206 4.413226 580.267298 19.562134 580.267298 33.37973z" fill="#d3217b" p-id="11044"></path></svg>