<?xml version="1.0" standalone="no"?>
<!DOCTYPE svg PUBLIC "-//W3C//DTD SVG 1.1//EN" "http://www.w3.org/Graphics/SVG/1.1/DTD/svg11.dtd">
<svg t="1710605936515" class="icon" viewBox="0 0 1024 1024" version="1.1" xmlns="http://www.w3.org/2000/svg" p-id="1474" xmlns:xlink="http://www.w3.org/1999/xlink" width="32" height="32">
	<path d="M128 103.424h204.8q76.8 0 76.8 76.8v204.8q0 76.8-76.8 76.8h-204.8Q51.2 461.824 51.2 385.024v-204.8q0-76.8 76.8-76.8zM543.232 228.3008l144.896-144.8448q54.272-54.272 108.544 0l144.896 144.8448q54.272 54.272 0 108.5952L796.672 481.792q-54.272 54.272-108.544 0L543.232 336.896q-54.272-54.272 0-108.5952zM128 615.424h204.8q76.8 0 76.8 76.8v204.8q0 76.8-76.8 76.8h-204.8q-76.8 0-76.8-76.8v-204.8q0-76.8 76.8-76.8zM640 615.424h204.8q76.8 0 76.8 76.8v204.8q0 76.8-76.8 76.8h-204.8q-76.8 0-76.8-76.8v-204.8q0-76.8 76.8-76.8z" fill="#ffffff" p-id="1475"></path>
</svg>